<?xml version="1.0" standalone="no"?>
<svg xmlns:xlink="http://www.w3.org/1999/xlink" id="wave" style="transform:rotate(0deg); transition: 0.3s" viewBox="0 0 1440 330" version="1.1" xmlns="http://www.w3.org/2000/svg"><defs><linearGradient id="sw-gradient-0" x1="0" x2="0" y1="1" y2="0"><stop stop-color="rgba(243, 106, 62, 1)" offset="0%"/><stop stop-color="rgba(255, 179, 11, 1)" offset="100%"/></linearGradient></defs><path style="transform:translate(0, 0px); opacity:1" fill="url(#sw-gradient-0)" d="M0,0L34.3,49.5C68.6,99,137,198,206,203.5C274.3,209,343,121,411,115.5C480,110,549,187,617,198C685.7,209,754,154,823,137.5C891.4,121,960,143,1029,176C1097.1,209,1166,253,1234,247.5C1302.9,242,1371,187,1440,181.5C1508.6,176,1577,220,1646,236.5C1714.3,253,1783,242,1851,220C1920,198,1989,165,2057,154C2125.7,143,2194,154,2263,137.5C2331.4,121,2400,77,2469,88C2537.1,99,2606,165,2674,165C2742.9,165,2811,99,2880,99C2948.6,99,3017,165,3086,181.5C3154.3,198,3223,165,3291,165C3360,165,3429,198,3497,181.5C3565.7,165,3634,99,3703,66C3771.4,33,3840,33,3909,66C3977.1,99,4046,165,4114,159.5C4182.9,154,4251,77,4320,60.5C4388.6,44,4457,88,4526,110C4594.3,132,4663,132,4731,110C4800,88,4869,44,4903,22L4937.1,0L4937.1,330L4902.9,330C4868.6,330,4800,330,4731,330C4662.9,330,4594,330,4526,330C4457.1,330,4389,330,4320,330C4251.4,330,4183,330,4114,330C4045.7,330,3977,330,3909,330C3840,330,3771,330,3703,330C3634.3,330,3566,330,3497,330C3428.6,330,3360,330,3291,330C3222.9,330,3154,330,3086,330C3017.1,330,2949,330,2880,330C2811.4,330,2743,330,2674,330C2605.7,330,2537,330,2469,330C2400,330,2331,330,2263,330C2194.3,330,2126,330,2057,330C1988.6,330,1920,330,1851,330C1782.9,330,1714,330,1646,330C1577.1,330,1509,330,1440,330C1371.4,330,1303,330,1234,330C1165.7,330,1097,330,1029,330C960,330,891,330,823,330C754.3,330,686,330,617,330C548.6,330,480,330,411,330C342.9,330,274,330,206,330C137.1,330,69,330,34,330L0,330Z"/></svg>